<svg width="56" height="56" viewBox="0 0 56 56" fill="none" xmlns="http://www.w3.org/2000/svg">
<circle cx="28" cy="28" r="28" fill="white"/>
<path d="M20.2137 24.8032C18.308 25.4338 15.4534 25.9536 13.8328 27.5743C9.34115 32.0659 14.0866 33.003 17.5915 36.5079C21.0964 40.0128 22.0335 44.7583 26.5251 40.2667C28.1459 38.646 28.6657 35.7914 29.2963 33.8856C30.4133 30.5099 30.552 28.0279 28.3118 25.7877C26.0714 23.5475 23.5894 23.6861 20.2137 24.8032Z" fill="black"/>
<path d="M32.3166 18.6391C34.1654 16.7902 34.4796 14.1069 33.0183 12.6456C31.557 11.1843 28.8736 11.4984 27.0248 13.3473C25.176 15.1961 24.8619 17.8794 26.3231 19.3407C27.7844 20.802 30.4678 20.4879 32.3166 18.6391Z" fill="black"/>
<path d="M40.7355 27.0395C42.5843 25.1907 42.8984 22.5073 41.4371 21.0461C39.9759 19.5848 37.2925 19.8989 35.4437 21.7477C33.5949 23.5965 33.2808 26.2798 34.7421 27.7411C36.2034 29.2024 38.8867 28.8883 40.7355 27.0395Z" fill="black"/>
<path d="M20.2086 19.438C21.4851 17.6549 21.4077 15.4132 20.0357 14.431C18.6637 13.4489 16.5167 14.0982 15.2402 15.8813C13.9637 17.6644 14.0412 19.9061 15.4132 20.8882C16.7852 21.8704 18.9322 21.2211 20.2086 19.438Z" fill="black"/>
<path d="M38.2253 38.8569C40.0084 37.5804 40.6577 35.4334 39.6755 34.0614C38.6933 32.6894 36.4516 32.612 34.6685 33.8885C32.8854 35.1649 32.2361 37.3119 33.2183 38.6839C34.2005 40.0559 36.4422 40.1334 38.2253 38.8569Z" fill="black"/>
</svg>
