<svg width="56" height="56" viewBox="0 0 56 56" fill="none" xmlns="http://www.w3.org/2000/svg">
<circle cx="28" cy="28" r="28" fill="black"/>
<path d="M20.4637 26.4702C18.558 27.1008 15.7034 27.6206 14.0828 29.2413C9.59115 33.7329 14.3366 34.67 17.8415 38.1749C21.3464 41.6798 22.2835 46.4253 26.7751 41.9337C28.3959 40.313 28.9157 37.4584 29.5463 35.5526C30.6633 32.1769 30.802 29.6949 28.5618 27.4547C26.3214 25.2144 23.8394 25.3531 20.4637 26.4702Z" fill="white"/>
<path d="M32.5666 20.306C34.4154 18.4572 34.7296 15.7739 33.2683 14.3126C31.807 12.8513 29.1236 13.1654 27.2748 15.0142C25.426 16.8631 25.1119 19.5464 26.5731 21.0077C28.0344 22.469 30.7178 22.1549 32.5666 20.306Z" fill="white"/>
<path d="M40.9855 28.7065C42.8343 26.8577 43.1484 24.1743 41.6871 22.7131C40.2259 21.2518 37.5425 21.5659 35.6937 23.4147C33.8449 25.2635 33.5308 27.9468 34.9921 29.4081C36.4534 30.8694 39.1367 30.5553 40.9855 28.7065Z" fill="white"/>
<path d="M20.4586 21.105C21.7351 19.3219 21.6577 17.0802 20.2857 16.098C18.9137 15.1159 16.7667 15.7652 15.4902 17.5483C14.2137 19.3314 14.2912 21.5731 15.6632 22.5552C17.0352 23.5374 19.1822 22.8881 20.4586 21.105Z" fill="white"/>
<path d="M38.4753 40.5239C40.2584 39.2474 40.9077 37.1004 39.9255 35.7284C38.9433 34.3564 36.7016 34.279 34.9185 35.5555C33.1354 36.8319 32.4861 38.9789 33.4683 40.3509C34.4505 41.7229 36.6922 41.8004 38.4753 40.5239Z" fill="white"/>
</svg>
