<svg width="56" height="48" viewBox="0 0 56 48" fill="none" xmlns="http://www.w3.org/2000/svg">
<path d="M34.0246 15.6441C33.8902 15.0773 33.8369 14.491 33.8734 13.9103C33.9266 13.049 33.8958 12.1821 33.8958 11.3152V3.04919C33.8958 2.21287 33.7277 1.24317 34.2908 0.537433C34.5682 0.190121 35.0136 -0.0432723 35.4563 0.00674066C35.7953 0.0428611 36.0951 0.231799 36.3669 0.431851C37.5016 1.26262 37.8714 2.68521 38.4009 3.9272C38.7679 4.78575 39.1322 5.64431 39.4992 6.50287H45.6629C45.6629 6.50287 48.1845 6.50286 49.025 10.3928H53.2275C53.2275 10.3928 57.1499 10.1149 54.068 15.9498C52.0872 19.7007 47.0105 21.5929 43.0181 21.4762C40.7067 21.4067 38.3785 20.9788 36.5518 19.4812C35.4591 18.5865 34.5598 17.3946 34.1339 16.0331C34.0947 15.9053 34.0583 15.7747 34.0274 15.6441H34.0246Z" fill="#020202"/>
<path d="M30.5337 21.7849C30.5337 21.7849 31.094 20.3957 32.7751 20.6735L44.5422 24.0077C44.5422 24.0077 46.2232 24.2855 47.0638 28.1754L50.1456 45.4021C50.3978 46.8108 49.0726 48.1362 47.6801 47.536C47.075 47.2748 46.6239 46.7358 46.3493 46.1412C45.7582 44.8659 45.5452 43.271 45.1754 41.9123C44.7636 40.3953 44.3517 38.881 43.9399 37.3639C43.6093 36.1414 43.2843 34.9189 42.9368 33.7019C42.609 32.5571 42.4634 31.2818 41.8246 30.2538C41.5528 29.8148 41.0905 29.398 40.5778 29.4841C39.9642 29.5869 39.5412 30.3371 39.3535 30.8622C39.1377 31.4652 39.1209 32.1265 38.894 32.7238C38.541 33.6491 37.7537 33.8714 36.8431 33.8714C36.8431 33.8714 35.1621 34.1492 34.8819 32.4849C34.7166 31.5124 34.4841 30.351 33.8901 29.5425C33.6716 29.2424 33.3634 28.9701 32.9908 28.9395C32.5901 28.909 32.2231 29.1646 31.9458 29.4536C30.4496 31.0095 30.3096 34.027 29.8417 36.0247C29.7128 36.5748 29.5811 37.1361 29.2701 37.6084C27.5751 40.1897 23.3473 38.8143 20.8734 39.7062C17.5478 40.9065 13.5834 43.5739 12.2358 46.922C12.1489 47.1387 12.0733 47.3637 11.9276 47.5471C11.6698 47.8722 11.2299 48.0084 10.8125 48C7.79505 47.9333 8.34138 44.7436 9.10905 42.7626C9.10905 42.7626 10.5099 39.1505 14.1521 35.2606C13.8019 35.6357 11.3476 35.08 10.9218 35.0133C8.65237 34.6466 6.3998 33.9019 4.50585 32.5877C-0.988297 28.7756 -1.59346 20.6179 3.4384 16.1779C5.61252 14.2607 8.5319 13.7662 11.3504 14.144C11.3504 14.144 14.5668 14.9248 14.2194 17.0337C13.9588 18.6202 12.3366 18.8147 10.989 19.112C10.8181 19.1509 10.65 19.187 10.4847 19.2426C7.64936 20.2039 6.81445 24.5217 7.98837 26.9223C7.98837 26.9223 12.4711 36.0914 25.6391 27.478C25.6391 27.478 29.8417 24.1438 30.5421 21.7821L30.5337 21.7849Z" fill="#020202"/>
<path d="M35.0165 36.5952C35.0469 36.2898 34.697 36.0055 34.2351 35.9603C33.7731 35.915 33.374 36.1259 33.3436 36.4314C33.3132 36.7368 33.663 37.0211 34.125 37.0663C34.5869 37.1115 34.9861 36.9006 35.0165 36.5952Z" fill="#020202"/>
<path d="M36.8488 39.0123C37.1954 39.0123 37.4764 38.8257 37.4764 38.5955C37.4764 38.3653 37.1954 38.1787 36.8488 38.1787C36.5022 38.1787 36.2212 38.3653 36.2212 38.5955C36.2212 38.8257 36.5022 39.0123 36.8488 39.0123Z" fill="#020202"/>
<path d="M39.3537 37.0523C39.8146 36.998 40.1587 36.7069 40.1223 36.4022C40.0858 36.0974 39.6825 35.8943 39.2216 35.9486C38.7606 36.0029 38.4165 36.2939 38.453 36.5987C38.4894 36.9035 38.8927 37.1065 39.3537 37.0523Z" fill="#020202"/>
</svg>
